<svg id="Camada_1" data-name="Camada 1" xmlns="http://www.w3.org/2000/svg" viewBox="0 0 115.47 30.9"><defs><style>.cls-1{fill:#fff;}.cls-2{fill:#2c2a7a;}.cls-3{fill:#ed2d60;}</style></defs><rect class="cls-1" x="-4231.33" y="-3867.97" width="9237" height="5495"/><path class="cls-2" d="M58,5.6c-5.42,0-7.49,1.34-8.81,5.22a.25.25,0,0,0,.17.33l3.91,1.08a.25.25,0,0,0,.31-.17,2.36,2.36,0,0,1,2.14-1.9h4.19a1.42,1.42,0,0,1,1.5,1.26c0,.7,0,2.56,0,2.56H54.87a6.53,6.53,0,0,0-6.47,6.7c0,3.77,2.09,6.65,9.21,6.65,6.38,0,8.7-2.47,8.7-5.86V12.12C66.31,10.07,65.29,5.6,58,5.6Zm3.35,16c0,.47-.28,1.3-1.67,1.3H55.05a2.16,2.16,0,0,1-1.9-2.25,2,2,0,0,1,2.09-2.26h6.14Z"/><path class="cls-2" d="M105.84,27.23c5.42,0,7.49-1.34,8.81-5.22a.24.24,0,0,0-.17-.32l-3.91-1.09a.25.25,0,0,0-.31.17,2.36,2.36,0,0,1-2.14,1.9h-4.19a1.42,1.42,0,0,1-1.5-1.26c0-.7,0-2.56,0-2.56H109a6.53,6.53,0,0,0,6.47-6.7c0-3.76-2.09-6.65-9.21-6.65-6.38,0-8.7,2.47-8.7,5.86v9.35C97.56,22.76,98.58,27.23,105.84,27.23Zm-3.68-15.81c0-.44.26-1.24,1.6-1.24h4.66c1.27,0,1.82.8,1.82,2s-.23,2.15-2,2.15h-6.08Z"/><path class="cls-2" d="M82,17.64c3.42,0,6.28-4.81,6.84-5.81a.35.35,0,0,1,.3-.18h0a.35.35,0,0,1,.35.35V27a.38.38,0,0,0,.39.38H94a.38.38,0,0,0,.38-.38V9.47A3.86,3.86,0,0,0,90.56,5.6h0c-2.09,0-3.21.89-4.46,2.47s-3.37,5.07-4.1,5.07-2.85-3.49-4.1-5.07S75.52,5.6,73.43,5.6h0a3.86,3.86,0,0,0-3.86,3.87V27a.38.38,0,0,0,.38.38h4.17A.38.38,0,0,0,74.5,27V12a.35.35,0,0,1,.35-.35h0a.37.37,0,0,1,.31.18C75.71,12.83,78.58,17.64,82,17.64Z"/><path class="cls-3" d="M21,30.9h0a4,4,0,0,0,2.81-1.16L40.86,12.66A3.7,3.7,0,0,0,41.94,10v-.2a3.74,3.74,0,0,0-1.1-2.64L34.28.75A2.63,2.63,0,0,0,32.44,0H9.5A2.59,2.59,0,0,0,7.67.75L1.11,7.2A3.71,3.71,0,0,0,0,9.84V10a3.7,3.7,0,0,0,1.08,2.62L18.16,29.74A4,4,0,0,0,21,30.9Z"/><path class="cls-2" d="M9.25,0v0a3,3,0,0,1,2,.78L19,7.8a2.31,2.31,0,0,0,1.53.58h.92A2.34,2.34,0,0,0,23,7.8l7.71-7a3,3,0,0,1,2-.78V0H9.25Z"/></svg>