<svg id="Camada_1" data-name="Camada 1" xmlns="http://www.w3.org/2000/svg" viewBox="0 0 120.65 53.78"><defs><style>.cls-1{fill:#fff;}</style></defs><rect class="cls-1" x="-4228.74" y="-3950.94" width="9237" height="5495"/><path d="M17.42,39.84h5.86a3.88,3.88,0,0,1,3.4,1.42,3.23,3.23,0,0,1,.6,1.93,3,3,0,0,1-.73,2.1,3.58,3.58,0,0,1-1.09.8A4.48,4.48,0,0,1,27,47a3.24,3.24,0,0,1,.91,2.44,3.73,3.73,0,0,1-.82,2.37,4.67,4.67,0,0,1-3.93,1.59H17.42Zm5.17,5.72a4.17,4.17,0,0,0,1.83-.32,1.86,1.86,0,0,0,1-1.83,1.74,1.74,0,0,0-1.09-1.78,4.77,4.77,0,0,0-1.82-.26H19.22v4.19Zm.62,6.25a2.82,2.82,0,0,0,2.43-1,2.43,2.43,0,0,0,.46-1.5,2,2,0,0,0-1.33-2,5.15,5.15,0,0,0-1.87-.28H19.22v4.76Z"/><path d="M43.11,41.77a7.53,7.53,0,0,1,1.34,4.6,8,8,0,0,1-1.54,5.05,6.1,6.1,0,0,1-5.15,2.36,6.17,6.17,0,0,1-4.92-2.07,7.8,7.8,0,0,1-1.59-5A8,8,0,0,1,32.61,42a5.9,5.9,0,0,1,5.18-2.51A6.22,6.22,0,0,1,43.11,41.77Zm-1.62,8.64a7.45,7.45,0,0,0,1.08-4,5.7,5.7,0,0,0-1.25-3.84,4.26,4.26,0,0,0-3.41-1.46,4.43,4.43,0,0,0-3.43,1.44,6.09,6.09,0,0,0-1.33,4.26,6.23,6.23,0,0,0,1.14,3.8A4.28,4.28,0,0,0,38,52.14,3.81,3.81,0,0,0,41.49,50.41Z"/><path d="M48.52,39.84h1.84V51.77h6.79v1.61H48.52Z"/><path d="M61.09,39.84h9.83V41.5h-8v4.11h7.43v1.57H62.88v4.59h8.17v1.61h-10Z"/><path d="M85.24,39.84v1.61H80.68V53.38H78.82V41.45H74.26V39.84Z"/><path d="M99.64,41.77a7.47,7.47,0,0,1,1.35,4.6,8.1,8.1,0,0,1-1.54,5.05,6.84,6.84,0,0,1-10.07.29,7.81,7.81,0,0,1-1.6-5A8,8,0,0,1,89.15,42a5.89,5.89,0,0,1,5.18-2.51A6.22,6.22,0,0,1,99.64,41.77ZM98,50.41a7.46,7.46,0,0,0,1.09-4,5.7,5.7,0,0,0-1.25-3.84,4.28,4.28,0,0,0-3.42-1.46A4.46,4.46,0,0,0,91,42.54a6.14,6.14,0,0,0-1.33,4.26,6.23,6.23,0,0,0,1.14,3.8,4.28,4.28,0,0,0,3.69,1.54A3.81,3.81,0,0,0,98,50.41Z"/><rect x="60.22" y="0.07" width="3.46" height="34.75"/><rect x="83.91" y="0.07" width="3.64" height="34.83"/><rect x="91.49" y="0.07" width="3.46" height="34.75"/><rect x="65.68" y="0.07" width="3.46" height="34.75"/><rect x="75.09" y="0.07" width="6.5" height="34.75"/><rect x="110.92" y="0.09" width="1.69" height="53.69"/><rect x="96.72" y="0.07" width="3.46" height="34.75"/><rect x="116.52" width="4.13" height="53.78"/><rect x="103.56" y="0.09" width="1.69" height="53.69"/><rect x="71.24" y="0.07" width="1.69" height="34.75"/><rect x="8" y="0.07" width="6.84" height="53.71"/><rect x="16.58" y="0.07" width="1.69" height="34.75"/><rect y="0.07" width="2.2" height="53.71"/><rect x="22.12" y="0.07" width="1.69" height="34.75"/><rect x="3.98" y="0.07" width="1.86" height="53.71"/><rect x="29.35" y="0.07" width="1.69" height="34.75"/><rect x="45.9" y="0.07" width="3.46" height="34.75"/><rect x="38.72" y="0.07" width="5.33" height="34.75"/><rect x="35.37" y="0.07" width="1.69" height="34.75"/><rect x="55.01" y="0.07" width="1.69" height="34.75"/></svg>