<svg id="Camada_1" data-name="Camada 1" xmlns="http://www.w3.org/2000/svg" viewBox="0 0 98.48 30.19"><defs><style>.cls-1{fill:#fff;}.cls-2{fill:#005097;}.cls-2,.cls-3{fill-rule:evenodd;}.cls-3{fill:#f5a400;}</style></defs><rect class="cls-1" x="-4239.82" y="-3593.54" width="9237" height="5495"/><polygon class="cls-2" points="34.67 29.75 39.67 0.48 47.67 0.48 42.66 29.75 34.67 29.75"/><path class="cls-2" d="M71.6,1.21A21.54,21.54,0,0,0,64.46,0C56.55,0,51,4,51,9.65c0,4.19,4,6.53,7,8s4.16,2.34,4.11,3.63c0,2-2.46,2.87-4.76,2.87a16.73,16.73,0,0,1-7.5-1.54l-1.05-.48-1.09,6.54a24.59,24.59,0,0,0,8.88,1.57c8.39,0,13.8-3.92,13.88-10,0-3.31-2.1-5.85-6.7-7.95C60.94,10.9,59.25,10,59.25,8.64s1.45-2.55,4.56-2.55a14.47,14.47,0,0,1,6,1.13l.73.33Z"/><path class="cls-2" d="M92.06.52H85.89c-1.9,0-3.35.53-4.2,2.43L69.86,29.79h8.36s1.37-3.64,1.69-4.4H90.13c.24,1,1,4.4,1,4.4h7.39L92.06.52M82.21,19.37c.65-1.65,3.19-8.15,3.19-8.15s.65-1.69,1-2.78l.53,2.5,1.85,8.43Z"/><path class="cls-2" d="M28,.52,20.18,20.46l-.81-4c-1.45-4.69-6-9.73-11.06-12.27l7.15,25.59h8.43L36.45.52Z"/><path class="cls-3" d="M13,.48H.08L0,1.13C10,3.55,16.63,9.4,19.37,16.43L16.55,3C16.06,1.13,14.69.57,13,.48Z"/></svg>