<svg id="Camada_1" data-name="Camada 1" xmlns="http://www.w3.org/2000/svg" viewBox="0 0 119.17 45.66"><defs><style>.cls-1{fill:#fff;}.cls-2{fill:#ffc905;}.cls-3{fill:#00a2de;}.cls-4{fill:#ed4123;}</style></defs><rect class="cls-1" x="-4229.48" y="-3392.38" width="9237" height="5495"/><path class="cls-2" d="M18.58,10.08a13.61,13.61,0,0,1,4.25-.68A13.43,13.43,0,0,1,36,20.15l9.21-1.88A22.87,22.87,0,0,0,15.59,1.17Z"/><path class="cls-3" d="M7.7,39.94l6.24-7a13.42,13.42,0,0,1,0-20.12l-6.24-7a22.86,22.86,0,0,0,0,34.22"/><path class="cls-4" d="M36,25.52A13.44,13.44,0,0,1,22.84,36.26a13,13,0,0,1-4.26-.69l-3,8.92A22.87,22.87,0,0,0,45.21,27.41Z"/><path d="M53.27,33.19a16.88,16.88,0,0,1-1-1.85A13.57,13.57,0,0,1,52,21.08a13.54,13.54,0,0,1,7.29-7.95,14,14,0,0,1,12.88.93A13.76,13.76,0,0,1,77.93,21c.17.41.33.85.48,1.23Zm8.4-14.62a6.93,6.93,0,0,0-4.21,7.36l12.65-5.44A6.72,6.72,0,0,0,61.67,18.57Zm10,11.84a0,0,0,0,0,0,0l-.26-.18A7.44,7.44,0,0,1,68,33.1c-2.83,1.23-5.45.92-7.33-.74l-.18.27h0l-3.21,4.8a13.74,13.74,0,0,0,2.55,1.4,13.91,13.91,0,0,0,16.73-5.14Z"/><path d="M87.2,6.06V32.75l4.15,1.68L89,39.93,84.41,38a5.19,5.19,0,0,1-2.25-1.9,5.92,5.92,0,0,1-.88-3.3V6.06Z"/><path d="M97.94,26a7.52,7.52,0,0,1,2.6-5.69l-4.26-4.75a13.92,13.92,0,0,0,0,20.87l4.25-4.74A7.55,7.55,0,0,1,97.94,26Z"/><path d="M105.51,33.52a7.59,7.59,0,0,1-2.4-.39l-2,6a14,14,0,0,0,18.1-10.41l-6.25-1.27A7.55,7.55,0,0,1,105.51,33.52Z"/><path d="M105.52,12a14.06,14.06,0,0,0-4.42.71l2,6a7.63,7.63,0,0,1,2.4-.38,7.54,7.54,0,0,1,7.4,6.06l6.25-1.26A13.93,13.93,0,0,0,105.52,12Z"/></svg>