<svg id="Camada_1" data-name="Camada 1" xmlns="http://www.w3.org/2000/svg" viewBox="0 0 191.04 120"><path d="M77.82,44.86a4.69,4.69,0,0,1,4.66,4.66,4.64,4.64,0,0,1-4.66,4.6,4.59,4.59,0,0,1-4.6-4.6,4.64,4.64,0,0,1,4.6-4.66"/><path d="M82.09,63.22V93.81a4.24,4.24,0,0,1-8.47,0V63.22a4.24,4.24,0,1,1,8.47,0"/><path d="M123.7,75.14V93.89A4.12,4.12,0,0,1,119.62,98a4.24,4.24,0,0,1-4.16-4.15V75.14a8,8,0,0,0-8.16-7.92,7.83,7.83,0,0,0-7.83,7.92V93.89a1.51,1.51,0,0,1-.16.78A4.29,4.29,0,0,1,95.15,98,4.14,4.14,0,0,1,91,93.89V63a4.14,4.14,0,0,1,4.16-4.16A4.23,4.23,0,0,1,99,61.26a15.69,15.69,0,0,1,8.31-2.43,16.42,16.42,0,0,1,16.4,16.31"/><path d="M64.7,47.46V93.73A4.42,4.42,0,0,1,60.31,98,4.3,4.3,0,0,1,56,93.73v-33L44.71,76.4a4.31,4.31,0,0,1-3.53,1.8H41a4.45,4.45,0,0,1-3.61-1.8L26.2,60.71v33a4.36,4.36,0,0,1-8.71,0V47.46a4.36,4.36,0,0,1,4.32-4.31H22A4.24,4.24,0,0,1,25.49,45L41.1,66.59,56.71,45a4.27,4.27,0,0,1,3.52-1.8h.08a4.47,4.47,0,0,1,4.39,4.31"/><path d="M141.31,89.34h4.87a18.75,18.75,0,0,0,0-37.49h-4.87Zm-8.7,4.39V47.46a4.25,4.25,0,0,1,4.31-4.31h9.26a27.45,27.45,0,0,1,0,54.89h-9.26a4.3,4.3,0,0,1-4.31-4.31"/><path d="M175.05,21.19H93.94a2.68,2.68,0,1,0,0,5.36h81.11a10.85,10.85,0,0,1,10.73,10.94V103.7a10.85,10.85,0,0,1-10.73,10.94H16A10.85,10.85,0,0,1,5.26,103.7V37.49A10.85,10.85,0,0,1,16,26.55h.2a2.68,2.68,0,0,0,0-5.36H16A16.16,16.16,0,0,0,0,37.49V103.7A16.16,16.16,0,0,0,16,120H175.05a16.16,16.16,0,0,0,16-16.3V37.49A16.16,16.16,0,0,0,175.05,21.19Z"/><path d="M22.47,37.52c-.49,0-.82,0-.86,0a1,1,0,0,1,.25-2.06h0a5.53,5.53,0,0,0,3.7-.84,2.44,2.44,0,0,0,.84-1.86c.17-2.95-1.6-6.61-2.89-9.28-.47-1-.87-1.81-1.12-2.49-.56-1.48-2.86-9.17,6.12-14.51a1,1,0,0,1,1.42.36,1,1,0,0,1-.36,1.42c-7.38,4.39-5.88,10.3-5.24,12,.21.59.6,1.39,1.05,2.31,1.38,2.87,3.28,6.81,3.09,10.3a4.48,4.48,0,0,1-1.58,3.33A7.07,7.07,0,0,1,22.47,37.52Z"/><path d="M36,29.09A7.15,7.15,0,0,1,29.48,24c-1.25-3.78.41-7.74,3.71-8.83a5.92,5.92,0,0,1,5,.64A7.75,7.75,0,0,1,41.44,20c1.25,3.78-.41,7.74-3.71,8.83A5.57,5.57,0,0,1,36,29.09ZM35,17a3.4,3.4,0,0,0-1.09.17c-2.17.72-3.23,3.47-2.35,6.12s3.37,4.23,5.55,3.51,3.23-3.47,2.35-6.13a5.67,5.67,0,0,0-2.36-3.06A4.06,4.06,0,0,0,35,17Z"/><path d="M55.24,32.25a1.07,1.07,0,0,1-1.07-1l-.39-5.66c-1,2.13-2.47,4-4.85,4.47a3.26,3.26,0,0,1-3-.85c-2.78-2.71-1.52-11.06-1.36-12a1.07,1.07,0,0,1,2.11.34c-.51,3.15-.75,8.68.75,10.14a1.13,1.13,0,0,0,1.11.28c3.55-.66,4.64-7.18,4.76-9.63a1.07,1.07,0,0,1,1.06-1h0a1.07,1.07,0,0,1,1.07,1l.87,12.81a1.06,1.06,0,0,1-1,1.14Z"/><path d="M71.91,35.11a1.11,1.11,0,0,1-.65-.27,1.1,1.1,0,0,1-.36-.78l-.63-33a1.07,1.07,0,0,1,1-1.09,1.09,1.09,0,0,1,1.1,1.05L73,32.86l3.8-.39a1.06,1.06,0,0,1,1.17,1,1.08,1.08,0,0,1-1,1.18l-5,.5Z"/><path d="M65,35.21a1.08,1.08,0,0,1-.86-.43C54.33,21.49,62.47,4.75,62.82,4a1.07,1.07,0,0,1,1.92,1c-.08.16-7.9,16.29,1.14,28.5A1.07,1.07,0,0,1,65,35.21Z"/><path d="M81.78,35.18a1.09,1.09,0,0,1-.39-.08,1.07,1.07,0,0,1-.61-1.38C88.57,13.46,79.7,5.44,79.61,5.36A1.07,1.07,0,1,1,81,3.75c.41.36,10.08,9.09,1.76,30.74A1.09,1.09,0,0,1,81.78,35.18Z"/></svg>