<svg id="Camada_1" data-name="Camada 1" xmlns="http://www.w3.org/2000/svg" viewBox="0 0 131.28 42.4"><defs><style>.cls-1{fill:#fff;}.cls-2{fill:#3eac57;fill-rule:evenodd;}</style></defs><rect class="cls-1" x="-4223.42" y="-3773.51" width="9237" height="5495"/><path class="cls-2" d="M27,0H39.45V12.34H27Zm2.12,2.13h8.17V10.2H29.16Zm1.95,1.93h4.25V8.28H31.11ZM6.51,6.66h6.72a10,10,0,1,1,0,19.91H6.51v7.65H0V11.53H6.51Zm0,4.9V21.68h5.54a5.06,5.06,0,1,0,0-10.12Zm20.53,5h6.48V34.22H27ZM68.15,6.66h6.72a10,10,0,1,1,0,19.91H68.15v7.65H61.64V11.53h6.51Zm0,4.9V21.68h5.54a5.06,5.06,0,1,0,0-10.12ZM48.64,12.8a11.34,11.34,0,0,1,9,4.4l-3.52,3.52a5.67,5.67,0,0,0-4.94-3.07,5.86,5.86,0,0,0-5.69,6,5.87,5.87,0,0,0,5.69,6,5.67,5.67,0,0,0,4.94-3.07l3.52,3.49a11.27,11.27,0,0,1-9,4.42A11.06,11.06,0,0,1,37.41,23.68,11.07,11.07,0,0,1,48.64,12.8m64.58,29.6h6.38l11.68-29.33H124.9l-5.36,13.45-5.35-13.45h-6.38l8.56,21.47Zm-7-8.62h-5.9V32.14c-7,4.56-12.87,1.56-13.58-2.91C86,24.23,89,20.61,101,21.6c0-4.5-6.75-5.07-11.31-1.92l-2.13-4.22c8.4-4.45,18.72-3.07,18.74,4.32ZM101.14,25h-5c-5,0-3.91,6.48.9,5.46,2.46-.52,4-2.16,4.14-5.46"/></svg>