<svg id="Camada_1" data-name="Camada 1" xmlns="http://www.w3.org/2000/svg" viewBox="0 0 128.85 45.66"><defs><style>.cls-1{fill:#fff;}.cls-2{fill:#929497;}.cls-3{fill:#32bbac;}</style></defs><rect class="cls-1" x="-4224.64" y="-3675.79" width="9237" height="5495"/><path class="cls-2" d="M53,43.46a.82.82,0,0,1-.82-.82V16.45a9.55,9.55,0,0,1,9.55-9.54h7.73A9.54,9.54,0,0,1,79,16.45V22a9.55,9.55,0,0,1-9.54,9.55H58.51a.82.82,0,1,1,0-1.64H69.44A7.91,7.91,0,0,0,77.34,22V16.45a7.9,7.9,0,0,0-7.87-7.89H61.74a7.91,7.91,0,0,0-7.91,7.9V42.64A.82.82,0,0,1,53,43.46ZM87.26,31.68a.81.81,0,0,1-.82-.82V11.3a2.77,2.77,0,0,0-2.76-2.76H80.32a.82.82,0,0,1,0-1.64h3.36a4.41,4.41,0,0,1,4.4,4.4V30.86A.82.82,0,0,1,87.26,31.68Z"/><path class="cls-3" d="M86.54,4.69,85,3.17A1,1,0,0,1,85,1.8L86.54.28a1,1,0,0,1,1.37,0L89.43,1.8a1,1,0,0,1,0,1.37L87.9,4.69a1,1,0,0,1-1.36,0Z"/><path class="cls-2" d="M97,31.51H93.69a.82.82,0,0,1,0-1.64H97a5.57,5.57,0,0,0,4-1.65l7.78-7.78a3.42,3.42,0,0,1,4.81,0l7.75,7.75a5.57,5.57,0,0,0,4,1.65H128a.82.82,0,0,1,0,1.64h-2.71a7.19,7.19,0,0,1-5.14-2.13l-7.75-7.75a1.77,1.77,0,0,0-2.49,0l-7.78,7.78A7.19,7.19,0,0,1,97,31.51ZM111.18,19a3.35,3.35,0,0,1-2.4-1L101,10.17a5.61,5.61,0,0,0-4-1.65H93.69a.82.82,0,0,1,0-1.64H97A7.23,7.23,0,0,1,102.16,9l7.78,7.78a1.79,1.79,0,0,0,2.49,0L120.18,9a7.23,7.23,0,0,1,5.14-2.13H128a.82.82,0,0,1,0,1.64h-2.71a5.61,5.61,0,0,0-4,1.65L113.59,18A3.36,3.36,0,0,1,111.18,19Z"/><path class="cls-3" d="M33.18,35.66a6.21,6.21,0,0,1-4.42-1.83l-6.38-6.38a1.21,1.21,0,0,0-1.68,0l-6.4,6.41a6.21,6.21,0,0,1-4.42,1.83H8.62l8.08,8.08a6.48,6.48,0,0,0,9.15,0L34,35.66Z"/><path class="cls-3" d="M9.88,13.09a6.21,6.21,0,0,1,4.42,1.83l6.4,6.41a1.19,1.19,0,0,0,1.68,0l6.38-6.38a6.21,6.21,0,0,1,4.42-1.83H34L25.85,5A6.46,6.46,0,0,0,16.7,5L8.62,13.09Z"/><path class="cls-3" d="M40.66,19.82l-4.9-4.9a1,1,0,0,1-.35.07H33.18a4.41,4.41,0,0,0-3.09,1.28l-6.38,6.38a3.05,3.05,0,0,1-4.33,0L13,16.25A4.37,4.37,0,0,0,9.88,15H7.14a.88.88,0,0,1-.33-.07L1.89,19.82a6.47,6.47,0,0,0,0,9.14l4.92,4.92a.88.88,0,0,1,.33-.07H9.88A4.41,4.41,0,0,0,13,32.53l6.41-6.41a3.15,3.15,0,0,1,4.33,0l6.38,6.39a4.41,4.41,0,0,0,3.09,1.28h2.23a.84.84,0,0,1,.35.07l4.9-4.9a6.47,6.47,0,0,0,0-9.14Z"/><path class="cls-2" d="M59.66,40.41a6.13,6.13,0,0,0-1.2.18v1.6a2.94,2.94,0,0,0,.94.16c.8,0,1.18-.27,1.18-1s-.32-1-.92-1Zm-1.47,3V40.22h.22l0,.14a6.07,6.07,0,0,1,1.24-.21,1.26,1.26,0,0,1,.82.24,1.2,1.2,0,0,1,.36,1,1.1,1.1,0,0,1-.51,1,2,2,0,0,1-.93.2,3.6,3.6,0,0,1-1-.14v.92Z"/><path class="cls-2" d="M62.87,40.4c-.8,0-1.15.25-1.15,1s.35,1,1.15,1,1.16-.25,1.16-1-.36-1-1.16-1Zm1,2a2.29,2.29,0,0,1-2.06,0,1.09,1.09,0,0,1-.41-1,1.13,1.13,0,0,1,.41-1,2.25,2.25,0,0,1,2.06,0,1.35,1.35,0,0,1,0,1.94Zm0,0Z"/><polygon class="cls-2" points="67.69 42.53 66.8 40.61 66.78 40.61 65.9 42.53 65.66 42.53 64.71 40.22 65.01 40.22 65.8 42.16 65.81 42.16 66.67 40.22 66.92 40.22 67.81 42.16 67.82 42.16 68.6 40.22 68.88 40.22 67.93 42.53 67.69 42.53 67.69 42.53"/><path class="cls-2" d="M70.61,40.4c-.74,0-1,.33-1,.8h2.08c0-.52-.3-.8-1-.8Zm0,2.19a1.41,1.41,0,0,1-1-.25,1.22,1.22,0,0,1-.36-1,1.18,1.18,0,0,1,.43-1,1.52,1.52,0,0,1,.9-.24,1.62,1.62,0,0,1,.92.23,1.15,1.15,0,0,1,.4,1.06H69.56c0,.48.17.9,1.06.9a7.35,7.35,0,0,0,1.2-.13v.24a7,7,0,0,1-1.22.14Z"/><path class="cls-2" d="M72.71,42.53V40.22h.21l0,.14a3.9,3.9,0,0,1,1.15-.21h0v.26h-.07a3.77,3.77,0,0,0-1.08.18v1.94Z"/><path class="cls-2" d="M75.69,40.4c-.74,0-1,.33-1,.8h2.07c0-.52-.29-.8-1-.8Zm0,2.19a1.38,1.38,0,0,1-1-.25,1.22,1.22,0,0,1-.37-1,1.21,1.21,0,0,1,.43-1,1.56,1.56,0,0,1,.9-.24,1.65,1.65,0,0,1,.93.23,1.18,1.18,0,0,1,.4,1.06H74.65c0,.48.16.9,1.06.9a7.35,7.35,0,0,0,1.19-.13v.24a6.9,6.9,0,0,1-1.21.14Z"/><path class="cls-2" d="M80,40.56A2.64,2.64,0,0,0,79,40.4c-.8,0-1.18.27-1.18,1s.31,1,.91,1a5.92,5.92,0,0,0,1.2-.18v-1.6Zm0,2,0-.14a6,6,0,0,1-1.25.2,1.05,1.05,0,0,1-1.18-1.21,1.1,1.1,0,0,1,.51-1,2,2,0,0,1,.94-.21,3.48,3.48,0,0,1,1,.15V39.24h.27v3.29Z"/><path class="cls-2" d="M84.2,40.41a6.13,6.13,0,0,0-1.2.18v1.59a2.69,2.69,0,0,0,.93.17c.8,0,1.18-.27,1.18-1s-.31-1-.91-1Zm.69,2a2,2,0,0,1-.93.2,3.42,3.42,0,0,1-1-.17l0,.11h-.18V39.24H83v1.11a6,6,0,0,1,1.22-.2,1.26,1.26,0,0,1,.82.24,1.23,1.23,0,0,1,.36,1,1.12,1.12,0,0,1-.51,1Z"/><path class="cls-2" d="M85.76,43.41v-.25l.34,0a.71.71,0,0,0,.73-.48l.08-.18-1.2-2.31H86l1,2h0l1-2h.31l-1.3,2.59a1,1,0,0,1-1,.63,1.93,1.93,0,0,1-.33,0Z"/><path class="cls-2" d="M92.08,41.21h-.9V42h.9c.62,0,.85-.07.85-.41s-.32-.4-.85-.4Zm-.17-1.31h-.73v.82h.74c.6,0,.85-.07.85-.41s-.31-.41-.86-.41Zm1.39,2.41a2.64,2.64,0,0,1-1.45.22H90.48V39.4h1.34a2.48,2.48,0,0,1,1.33.2.64.64,0,0,1,.32.62.67.67,0,0,1-.5.69v0c.41.09.67.3.67.74a.68.68,0,0,1-.34.64Z"/><path class="cls-2" d="M96.37,41.56c-.27,0-.54,0-.83,0-.47,0-.64.1-.64.31s.14.31.5.31a4.61,4.61,0,0,0,1-.13v-.45Zm.14,1,0-.14a5.34,5.34,0,0,1-1.25.2,1.18,1.18,0,0,1-.7-.17.63.63,0,0,1-.26-.56.65.65,0,0,1,.39-.62,2,2,0,0,1,.87-.13c.24,0,.56,0,.83,0v0c0-.37-.24-.48-.89-.48-.25,0-.55,0-.85,0V40.2c.33,0,.69-.05,1-.05a2,2,0,0,1,1.07.22.85.85,0,0,1,.32.79v1.37Z"/><path class="cls-2" d="M100,42.53V41.25c0-.42-.21-.57-.6-.57a4,4,0,0,0-.94.15v1.7h-.64V40.22h.52l0,.14a5.65,5.65,0,0,1,1.24-.21,1.18,1.18,0,0,1,.79.24.92.92,0,0,1,.25.72v1.42Z"/><path class="cls-2" d="M102.49,42.59a1.33,1.33,0,0,1-.86-.24,1.2,1.2,0,0,1-.36-1,1.13,1.13,0,0,1,.47-1,1.9,1.9,0,0,1,1-.23,7.81,7.81,0,0,1,.81.05v.49c-.23,0-.51,0-.74,0-.61,0-.9.19-.9.73s.22.71.72.71a5.83,5.83,0,0,0,1-.12v.48a6.13,6.13,0,0,1-1.13.14Z"/><path class="cls-2" d="M105.52,40.64c-.61,0-.88.19-.88.72s.27.75.88.75.88-.19.88-.72-.26-.75-.88-.75Zm1.11,1.71a2.69,2.69,0,0,1-2.22,0,1.32,1.32,0,0,1,0-2,2.59,2.59,0,0,1,2.22,0,1.32,1.32,0,0,1,0,2Zm0,0Z"/><path class="cls-2" d="M110.78,42.59a1.73,1.73,0,0,1-1.12-.32,1.6,1.6,0,0,1-.49-1.31,1.55,1.55,0,0,1,.63-1.33,2.4,2.4,0,0,1,1.33-.3,10.38,10.38,0,0,1,1.09.06V40c-.33,0-.74-.05-1.06-.05-.89,0-1.27.34-1.27,1.06s.35,1.06,1,1.06a7.07,7.07,0,0,0,1.39-.18v.56a8.2,8.2,0,0,1-1.51.19Z"/><path class="cls-2" d="M114.19,40.57c-.54,0-.74.19-.78.54H115c0-.37-.24-.54-.77-.54Zm-.1,2a1.5,1.5,0,0,1-1-.25,1.22,1.22,0,0,1-.37-1,1.17,1.17,0,0,1,.44-1,1.71,1.71,0,0,1,1-.25,1.75,1.75,0,0,1,1,.24c.37.26.4.66.41,1.14h-2.2c0,.35.2.58.85.58a8.27,8.27,0,0,0,1.23-.12v.45a9.09,9.09,0,0,1-1.39.15Z"/><path class="cls-2" d="M118.47,42.53V41.25c0-.42-.22-.57-.6-.57a4.07,4.07,0,0,0-1,.15v1.7h-.64V40.22h.53l0,.14a5.56,5.56,0,0,1,1.23-.21,1.16,1.16,0,0,1,.79.24.89.89,0,0,1,.26.72v1.42Z"/><path class="cls-2" d="M120.94,42.59a.85.85,0,0,1-.75-.33,1.22,1.22,0,0,1-.17-.7V40.7h-.46v-.48H120l.07-.7h.57v.7h.91v.48h-.91v.74a1.1,1.1,0,0,0,.07.44.41.41,0,0,0,.42.21,3.28,3.28,0,0,0,.46,0v.46a3.72,3.72,0,0,1-.67.08Z"/><path class="cls-2" d="M122.2,42.53V40.22h.53l0,.14a4.37,4.37,0,0,1,1.14-.21H124v.55h-.23a3.72,3.72,0,0,0-.9.12v1.71Z"/><path class="cls-2" d="M126.32,41.56c-.27,0-.54,0-.83,0-.47,0-.64.1-.64.31s.14.31.5.31a4.7,4.7,0,0,0,1-.13v-.45Zm.14,1,0-.14a5.34,5.34,0,0,1-1.25.2,1.16,1.16,0,0,1-.7-.17.71.71,0,0,1,.13-1.18,2,2,0,0,1,.86-.13c.25,0,.57,0,.84,0v0c0-.37-.24-.48-.89-.48-.25,0-.56,0-.85,0V40.2c.33,0,.69-.05,1-.05a2,2,0,0,1,1.08.22.87.87,0,0,1,.32.79v1.37Z"/><polygon class="cls-2" points="127.79 39.24 128.44 39.24 128.44 42.53 127.79 42.53 127.79 39.24 127.79 39.24"/></svg>