<svg id="Camada_1" data-name="Camada 1" xmlns="http://www.w3.org/2000/svg" viewBox="0 0 66.04 51.37"><defs><style>.cls-1{fill:#fff;}.cls-2{fill:#231f20;}.cls-3{fill:#ff5f00;}.cls-4{fill:#e9001b;}.cls-5{fill:#f59c1b;}</style></defs><rect class="cls-1" x="-4256.04" y="-3490.1" width="9237" height="5495"/><g id="Layer_2" data-name="Layer 2"><g id="Layer_1-2" data-name="Layer 1-2"><path class="cls-2" d="M12,51.09V47.68a2,2,0,0,0-1.88-2.15H9.89a2.1,2.1,0,0,0-1.91,1,2,2,0,0,0-1.79-1,1.78,1.78,0,0,0-1.59.81v-.67H3.42v5.42H4.61v-3A1.28,1.28,0,0,1,5.7,46.67h.24c.78,0,1.18.51,1.18,1.43v3H8.31v-3a1.29,1.29,0,0,1,1.1-1.43h.23c.8,0,1.19.51,1.19,1.43v3Zm17.61-5.42H27.69V44H26.5v1.65H25.42v1.07h1.1v2.5c0,1.26.49,2,1.89,2a2.82,2.82,0,0,0,1.47-.42l-.34-1a2.24,2.24,0,0,1-1,.3c-.57,0-.79-.36-.79-.9V46.74h1.93Zm10.06-.14a1.59,1.59,0,0,0-1.43.79v-.65H37.09v5.42h1.18v-3c0-.9.39-1.4,1.14-1.4a2,2,0,0,1,.73.14l.36-1.13a2.34,2.34,0,0,0-.83-.15Zm-15.21.57a4,4,0,0,0-2.21-.57c-1.37,0-2.27.66-2.27,1.74,0,.88.66,1.42,1.88,1.59l.56.08c.65.09.95.26.95.57s-.43.66-1.23.66a2.84,2.84,0,0,1-1.8-.57l-.57.92a3.87,3.87,0,0,0,2.35.7c1.56,0,2.47-.73,2.47-1.77s-.72-1.45-1.9-1.62l-.56-.08c-.51-.07-.92-.17-.92-.53s.38-.64,1-.64a3.5,3.5,0,0,1,1.7.47Zm31.59-.57a1.59,1.59,0,0,0-1.43.79v-.65H53.47v5.42h1.18v-3c0-.9.39-1.4,1.13-1.4a2,2,0,0,1,.74.14l.36-1.13a2.4,2.4,0,0,0-.84-.15Zm-15.2,2.84a2.74,2.74,0,0,0,2.64,2.83h.25a2.77,2.77,0,0,0,2-.65l-.56-.95a2.44,2.44,0,0,1-1.42.49,1.74,1.74,0,0,1,0-3.47,2.37,2.37,0,0,1,1.42.49l.56-1a2.8,2.8,0,0,0-2-.64,2.72,2.72,0,0,0-2.88,2.58,2.09,2.09,0,0,0,0,.25Zm11.05,0v-2.7H50.74v.65a2.08,2.08,0,0,0-1.7-.79,2.84,2.84,0,1,0,0,5.67,2.08,2.08,0,0,0,1.7-.79v.65h1.18Zm-4.39,0a1.67,1.67,0,1,1,0,.12ZM33.3,45.53a2.84,2.84,0,1,0,.08,5.67h0a3.29,3.29,0,0,0,2.25-.74l-.57-.87a2.58,2.58,0,0,1-1.57.57,1.52,1.52,0,0,1-1.63-1.33h4v-.45a2.58,2.58,0,0,0-2.57-2.84Zm0,1a1.35,1.35,0,0,1,1.37,1.32H31.84a1.4,1.4,0,0,1,1.44-1.32Zm29.54,1.8V43.49H61.71v2.83a2.08,2.08,0,0,0-1.7-.79,2.84,2.84,0,1,0,0,5.67,2.08,2.08,0,0,0,1.7-.79v.65h1.13Zm2,1.92a.49.49,0,0,1,.21,0,.42.42,0,0,1,.18.11.66.66,0,0,1,.12.17.51.51,0,0,1,0,.42.66.66,0,0,1-.12.17.42.42,0,0,1-.18.11.5.5,0,0,1-.21,0A.56.56,0,0,1,64.3,51a.51.51,0,0,1,0-.42.66.66,0,0,1,.12-.17.45.45,0,0,1,.17-.11.67.67,0,0,1,.24,0Zm0,1a.29.29,0,0,0,.16,0,.3.3,0,0,0,.13-.09.42.42,0,0,0,0-.57L65,50.47a.41.41,0,0,0-.16,0,.51.51,0,0,0-.17,0,.6.6,0,0,0-.13.09.42.42,0,0,0,0,.57.38.38,0,0,0,.13.09.41.41,0,0,0,.19,0Zm0-.68a.25.25,0,0,1,.15.05.13.13,0,0,1,.05.12.14.14,0,0,1,0,.1.17.17,0,0,1-.12,0l.17.19h-.13l-.16-.19h-.05v.19H64.6v-.5Zm-.12.1v.13h.19a0,0,0,0,0,0-.05,0,0,0,0,0,0,0h-.07Zm-6.24-2.3a1.67,1.67,0,1,1,0,.12Zm-39.81,0V45.67H17.49v.65a2.08,2.08,0,0,0-1.7-.79,2.84,2.84,0,1,0,0,5.67,2.08,2.08,0,0,0,1.7-.79v.65h1.18Zm-4.39,0a1.47,1.47,0,1,1,0,.14.61.61,0,0,1,0-.14Z"/><g id="_Group_" data-name=" Group "><rect class="cls-3" x="24.09" y="4.37" width="17.86" height="32.09"/><path id="_Path_" data-name=" Path " class="cls-4" d="M25.23,20.42A20.33,20.33,0,0,1,33,4.37a20.41,20.41,0,1,0,0,32.09A20.37,20.37,0,0,1,25.23,20.42Z"/><path class="cls-5" d="M66,20.42a20.41,20.41,0,0,1-33,16A20.38,20.38,0,0,0,33,4.37a20.4,20.4,0,0,1,33,16Z"/><path class="cls-5" d="M64.09,33.06V32.4h.27v-.14h-.67v.14H64v.66Zm1.31,0v-.8h-.2l-.24.57-.24-.57h-.18v.8h.15v-.6l.22.52h.15l.23-.52v.6Z"/></g></g></g></svg>